<?xml version="1.0" encoding="utf-8"?>
<!-- Generator: Adobe Illustrator 16.0.0, SVG Export Plug-In . SVG Version: 6.00 Build 0)  -->
<!DOCTYPE svg PUBLIC "-//W3C//DTD SVG 1.1//EN" "http://www.w3.org/Graphics/SVG/1.1/DTD/svg11.dtd">
<svg version="1.1" id="Layer_1" xmlns="http://www.w3.org/2000/svg" xmlns:xlink="http://www.w3.org/1999/xlink" x="0px" y="0px"
	 width="1500px" height="1500px" viewBox="0 0 1500 1500" enable-background="new 0 0 1500 1500" xml:space="preserve">
<g>
	<defs>
		<rect id="SVGID_1_" x="714.5" y="715" width="71" height="71"/>
	</defs>
	<clipPath id="SVGID_2_">
		<use xlink:href="#SVGID_1_"  overflow="visible"/>
	</clipPath>
	<path clip-path="url(#SVGID_2_)" fill="#0066B2" d="M750,783c17.902,0,32.5-14.6,32.5-32.501c0-17.9-14.599-32.5-32.5-32.5
		c-17.9,0-32.499,14.6-32.499,32.5C717.5,768.4,732.1,783,750,783"/>
	<path clip-path="url(#SVGID_2_)" fill="none" stroke="#FFFFFF" stroke-width="4" stroke-miterlimit="10" d="M750,783
		c17.902,0,32.5-14.6,32.5-32.501c0-17.9-14.599-32.5-32.5-32.5c-17.9,0-32.499,14.6-32.499,32.5C717.5,768.4,732.1,783,750,783z"/>
</g>
<path fill="#FFFFFF" d="M741.536,737.051c1.427,0,2.586,1.158,2.586,2.588c0,1.427-1.159,2.586-2.586,2.586
	c-1.428,0-2.587-1.159-2.587-2.586C738.949,738.209,740.108,737.051,741.536,737.051 M741.536,733.948
	c-3.143,0-5.69,2.547-5.69,5.69c0,3.141,2.547,5.688,5.69,5.688c3.141,0,5.689-2.548,5.689-5.688
	C747.225,736.495,744.677,733.948,741.536,733.948 M754.982,737.051c1.43,0,2.586,1.158,2.586,2.588
	c0,1.427-1.156,2.586-2.586,2.586c-1.428,0-2.586-1.159-2.586-2.586C752.396,738.209,753.555,737.051,754.982,737.051
	 M754.982,733.948c-3.141,0-5.688,2.547-5.688,5.69c0,3.141,2.548,5.688,5.688,5.688c3.143,0,5.69-2.548,5.69-5.688
	C760.673,736.495,758.125,733.948,754.982,733.948 M738.949,747.396h18.621c1.706,0,3.104,1.396,3.104,3.103v2.888l5.018-3.541
	c0.935-0.656,2.223-0.433,2.878,0.5c0.256,0.362,0.381,0.777,0.381,1.188v12.414c0,1.143-0.928,2.07-2.069,2.07
	c-0.49,0-0.939-0.172-1.295-0.455l-4.912-3.469v1.854c0,1.707-1.397,3.104-3.104,3.104h-18.621c-1.706,0-3.103-1.396-3.103-3.104
	v-13.448C735.846,748.792,737.243,747.396,738.949,747.396"/>
</svg>
