<?xml version="1.0" encoding="utf-8"?>
<!-- Generator: Adobe Illustrator 16.0.0, SVG Export Plug-In . SVG Version: 6.00 Build 0)  -->
<!DOCTYPE svg PUBLIC "-//W3C//DTD SVG 1.1//EN" "http://www.w3.org/Graphics/SVG/1.1/DTD/svg11.dtd">
<svg version="1.1" xmlns="http://www.w3.org/2000/svg" xmlns:xlink="http://www.w3.org/1999/xlink" x="0px" y="0px" width="1500px"
	 height="1500px" viewBox="0 0 1500 1500" enable-background="new 0 0 1500 1500" xml:space="preserve">
<g id="Layer_1" display="none">
	<g display="inline">
		<path fill="#231F20" d="M1483.853,749.645c0,403.461-327.05,730.513-730.494,730.513c-403.468,0-730.52-327.052-730.52-730.513
			c0-403.449,327.052-730.513,730.52-730.513C1156.803,19.132,1483.853,346.196,1483.853,749.645z"/>
		<g>
			<g>
				<path fill="#FFDD15" d="M821.213,1153.783c-77.557,0-162.271-30.615-200.034-81.646v62.256H388.497V855.773h228.605
					c0,76.539,54.087,113.285,124.499,113.285c38.783,0,64.288-24.493,64.288-58.171c0-91.848-417.391-20.409-417.391-318.414
					c0-133.688,141.857-246.968,317.385-246.968c77.57,0,141.869,32.655,176.564,81.642l1.022-62.249h211.258v268.399h-208.19
					c0-76.534-51.055-113.279-121.442-113.279c-38.807,0-64.299,24.493-64.299,58.171c0,91.854,417.402,30.622,417.402,328.615
					C1118.195,1040.486,996.741,1153.783,821.213,1153.783z"/>
			</g>
		</g>
	</g>
</g>
<g id="Layer_2" display="none">
	<g display="inline">
		<path fill="#FFDD15" d="M1482.607,749.22c0,403.934-327.445,731.391-731.369,731.391c-403.945,0-731.391-327.457-731.391-731.391
			c0-403.923,327.446-731.38,731.391-731.38C1155.162,17.84,1482.607,345.297,1482.607,749.22z"/>
		<g>
			<path fill="#231F20" d="M1220.482,278.212v311.083H934.311c0-105.22-70.19-155.715-166.937-155.715
				c-53.352,0-88.371,33.667-88.371,79.951c0,126.28,573.728,42.097,573.728,451.724c0,183.743-166.958,339.49-408.219,339.49
				c-106.595,0-223.059-42.097-274.96-112.244v85.568H348.365c111.8,85.297,251.379,136.052,402.863,136.052
				c367.205,0,664.891-297.687,664.891-664.902C1416.118,565.174,1341.318,398.605,1220.482,278.212z"/>
			<path fill="#231F20" d="M249.703,895.108h314.243c0,105.188,74.345,155.715,171.114,155.715c53.33,0,88.371-33.666,88.371-79.973
				c0-126.226-573.728-28.039-573.728-437.677c0-183.754,195.008-339.469,436.27-339.469c106.638,0,195.008,44.878,242.711,112.211
				l1.406-85.546h223.979C1042.269,135.073,902.7,84.33,751.228,84.33c-367.227,0-664.891,297.686-664.891,664.891
				c0,166.991,61.695,319.481,163.366,436.27V895.108z"/>
		</g>
	</g>
</g>
<g id="Layer_3">
	<g>
		<path fill="#FFDD15" d="M1484.551,748.653c0,404.167-327.612,731.802-731.767,731.802c-404.172,0-731.802-327.636-731.802-731.802
			c0-404.155,327.629-731.79,731.802-731.79C1156.938,16.863,1484.551,344.498,1484.551,748.653z"/>
		<g>
			<g>
				<path fill="#231F20" d="M820.758,1171.781c-77.692,0-162.555-30.682-200.383-81.802v62.363h-233.09V873.237H616.29
					c0,76.668,54.181,113.483,124.715,113.483c38.853,0,64.4-24.536,64.4-58.278c0-91.997-418.12-20.438-418.12-318.964
					c0-133.922,142.105-247.4,317.94-247.4c77.704,0,142.116,32.712,176.865,81.784l1.024-62.352h211.627v268.869H886.188
					c0-76.68-51.138-113.484-121.648-113.484c-38.876,0-64.412,24.536-64.412,58.267c0,92.021,418.126,30.682,418.126,329.196
					C1118.254,1058.273,996.6,1171.781,820.758,1171.781z"/>
			</g>
		</g>
	</g>
</g>
<g id="Layer_4">
</g>
<g id="Layer_5">
</g>
<g id="Layer_6">
</g>
<g id="Layer_7">
</g>
<g id="Layer_8">
</g>
</svg>
