<?xml version="1.0" encoding="utf-8"?>
<!-- Generator: Adobe Illustrator 16.0.0, SVG Export Plug-In . SVG Version: 6.00 Build 0)  -->
<!DOCTYPE svg PUBLIC "-//W3C//DTD SVG 1.1//EN" "http://www.w3.org/Graphics/SVG/1.1/DTD/svg11.dtd">
<svg version="1.1" xmlns="http://www.w3.org/2000/svg" xmlns:xlink="http://www.w3.org/1999/xlink" x="0px" y="0px" width="1500px"
	 height="1500px" viewBox="0 0 1500 1500" enable-background="new 0 0 1500 1500" xml:space="preserve">
<g id="Layer_1" display="none">
	<g display="inline">
		<path fill="#231F20" d="M1483.853,749.645c0,403.461-327.05,730.513-730.494,730.513c-403.468,0-730.52-327.052-730.52-730.513
			c0-403.449,327.052-730.513,730.52-730.513C1156.803,19.132,1483.853,346.196,1483.853,749.645z"/>
		<g>
			<g>
				<path fill="#FFDD15" d="M821.213,1153.783c-77.557,0-162.271-30.615-200.034-81.646v62.256H388.497V855.773h228.605
					c0,76.539,54.087,113.285,124.499,113.285c38.783,0,64.288-24.493,64.288-58.171c0-91.848-417.391-20.409-417.391-318.414
					c0-133.688,141.857-246.968,317.385-246.968c77.57,0,141.869,32.655,176.564,81.642l1.022-62.249h211.258v268.399h-208.19
					c0-76.534-51.055-113.279-121.442-113.279c-38.807,0-64.299,24.493-64.299,58.171c0,91.854,417.402,30.622,417.402,328.615
					C1118.195,1040.486,996.741,1153.783,821.213,1153.783z"/>
			</g>
		</g>
	</g>
</g>
<g id="Layer_2" display="none">
	<g display="inline">
		<path fill="#FFDD15" d="M1482.607,749.22c0,403.934-327.445,731.391-731.369,731.391c-403.945,0-731.391-327.457-731.391-731.391
			c0-403.923,327.446-731.38,731.391-731.38C1155.162,17.84,1482.607,345.297,1482.607,749.22z"/>
		<g>
			<path fill="#231F20" d="M1220.482,278.212v311.083H934.311c0-105.22-70.19-155.715-166.937-155.715
				c-53.352,0-88.371,33.667-88.371,79.951c0,126.28,573.728,42.097,573.728,451.724c0,183.743-166.958,339.49-408.219,339.49
				c-106.595,0-223.059-42.097-274.96-112.244v85.568H348.365c111.8,85.297,251.379,136.052,402.863,136.052
				c367.205,0,664.891-297.687,664.891-664.902C1416.118,565.174,1341.318,398.605,1220.482,278.212z"/>
			<path fill="#231F20" d="M249.703,895.108h314.243c0,105.188,74.345,155.715,171.114,155.715c53.33,0,88.371-33.666,88.371-79.973
				c0-126.226-573.728-28.039-573.728-437.677c0-183.754,195.008-339.469,436.27-339.469c106.638,0,195.008,44.878,242.711,112.211
				l1.406-85.546h223.979C1042.269,135.073,902.7,84.33,751.228,84.33c-367.227,0-664.891,297.686-664.891,664.891
				c0,166.991,61.695,319.481,163.366,436.27V895.108z"/>
		</g>
	</g>
</g>
<g id="Layer_3" display="none">
	<g display="inline">
		<path fill="#FFDD15" d="M1484.551,748.653c0,404.167-327.612,731.802-731.767,731.802c-404.172,0-731.802-327.636-731.802-731.802
			c0-404.155,327.629-731.79,731.802-731.79C1156.938,16.863,1484.551,344.498,1484.551,748.653z"/>
		<g>
			<g>
				<path fill="#231F20" d="M820.758,1171.781c-77.692,0-162.555-30.682-200.383-81.802v62.363h-233.09V873.237H616.29
					c0,76.668,54.181,113.483,124.715,113.483c38.853,0,64.4-24.536,64.4-58.278c0-91.997-418.12-20.438-418.12-318.964
					c0-133.922,142.105-247.4,317.94-247.4c77.704,0,142.116,32.712,176.865,81.784l1.024-62.352h211.627v268.869H886.188
					c0-76.68-51.138-113.484-121.648-113.484c-38.876,0-64.412,24.536-64.412,58.267c0,92.021,418.126,30.682,418.126,329.196
					C1118.254,1058.273,996.6,1171.781,820.758,1171.781z"/>
			</g>
		</g>
	</g>
</g>
<g id="Layer_4" display="none">
	<g display="inline">
		<path fill="#FFDD15" d="M1485.042,1322.997c0,87.439-70.883,158.323-158.322,158.323H178.896
			c-87.439,0-158.323-70.884-158.323-158.323V175.185c0-87.451,70.883-158.334,158.323-158.334H1326.72
			c87.439,0,158.322,70.883,158.322,158.334V1322.997z"/>
		<g>
			<g>
				<path fill="#231F20" d="M820.648,1153.074c-77.527,0-162.209-30.615-199.957-81.627v62.23H388.099V855.173h228.517
					c0,76.511,54.065,113.241,124.45,113.241c38.769,0,64.263-24.483,64.263-58.147c0-91.813-417.229-20.401-417.229-318.292
					c0-133.637,141.802-246.874,317.263-246.874c77.539,0,141.814,32.643,176.495,81.61l1.022-62.225h211.176v268.296H885.945
					c0-76.505-51.035-113.236-121.396-113.236c-38.793,0-64.275,24.484-64.275,58.148c0,91.819,417.242,30.61,417.242,328.489
					C1117.517,1039.814,996.109,1153.074,820.648,1153.074z"/>
			</g>
		</g>
	</g>
</g>
<g id="Layer_5" display="none">
	<g display="inline">
		<path fill="#231F20" d="M1484.998,1324.084c0,87.625-71.025,158.65-158.65,158.65H176.236
			c-87.602,0-158.626-71.025-158.626-158.65V173.996c0-87.625,71.024-158.65,158.626-158.65h1150.112
			c87.625,0,158.65,71.024,158.65,158.65V1324.084z"/>
		<g>
			<g>
				<path fill="#FFDD15" d="M819.268,1153.834c-77.67,0-162.533-30.677-200.355-81.79v62.355H385.855V855.326H614.84
					c0,76.67,54.161,113.468,124.686,113.468c38.847,0,64.403-24.532,64.403-58.258c0-91.984-418.073-20.436-418.073-318.92
					c0-133.903,142.097-247.371,317.896-247.371c77.694,0,142.096,32.702,176.847,81.767l1.023-62.331h211.597v268.831H884.694
					c0-76.669-51.137-113.468-121.637-113.468c-38.871,0-64.403,24.533-64.403,58.258c0,92.008,418.073,30.677,418.073,329.138
					C1116.728,1040.343,995.09,1153.834,819.268,1153.834z"/>
			</g>
		</g>
	</g>
</g>
<g id="Layer_6">
	<g>
		<path fill="#231F20" d="M1486.341,1325.469c0,87.713-71.104,158.817-158.817,158.817H176.112
			c-87.712,0-158.817-71.104-158.817-158.817V174.069C17.295,86.345,88.4,15.24,176.112,15.24h1151.411
			c87.713,0,158.817,71.105,158.817,158.829V1325.469z"/>
		<g>
			<g>
				<path fill="#FFFFFF" d="M859.876,1267.467c-99.754,0-208.712-39.392-257.284-105.036v80.082H303.3V884.14H597.34
					c0,98.442,69.573,145.715,160.14,145.715c49.884,0,82.688-31.499,82.688-74.837c0-118.114-536.868-26.229-536.868-409.543
					c0-171.944,182.465-317.659,408.238-317.659c99.767,0,182.472,42.014,227.103,105.012l1.312-80.046h271.733v345.223H943.904
					c0-98.467-65.674-145.715-156.212-145.715c-49.919,0-82.699,31.499-82.699,74.801c0,118.162,536.88,39.403,536.88,422.694
					C1241.873,1121.716,1085.649,1267.467,859.876,1267.467z"/>
			</g>
		</g>
		<path fill="#FFDD15" d="M17.295,1073.419v252.05c0,87.713,71.105,158.817,158.817,158.817h1151.411
			c87.713,0,158.817-71.104,158.817-158.817v-252.05H17.295z"/>
		<g>
			<g>
				<g>
					<path fill="#231F20" d="M265.721,1364.86c-18.563,0-38.831-7.32-47.856-19.541v14.903h-55.677v-66.658h54.7
						c0,18.313,12.942,27.1,29.788,27.1c9.275,0,15.38-5.854,15.38-13.913c0-21.985-99.868-4.9-99.868-76.196
						c0-31.987,33.937-59.087,75.945-59.087c18.551,0,33.937,7.81,42.247,19.529l0.239-14.903h50.544v64.226h-49.817
						c0-18.313-12.208-27.1-29.049-27.1c-9.288,0-15.397,5.854-15.397,13.913c0,21.974,99.879,7.345,99.879,78.641
						C336.778,1337.761,307.717,1364.86,265.721,1364.86z"/>
				</g>
			</g>
			<path fill="#231F20" d="M514.969,1360.223v-129.668h-75.623v36.876h14.402v33.442c-4.149,16.369-10.742,24.429-16.852,24.429
				c-6.832,0-7.32-10.003-7.32-21.484v-73.263h-77.895v36.876h16.125v52.744c0,24.429,16.107,42.729,37.835,42.729
				c22.712,0,39.803-14.891,48.106-30.521v27.839H514.969z"/>
			<path fill="#231F20" d="M1124.76,1360.294h59.242v-31.881c0-0.06-0.012-0.119-0.012-0.179v-57.871
				c0-22.712-23.188-42.741-65.68-42.741c-42.247,0-62.032,18.074-62.032,34.933c0,14.641,10.265,23.678,28.327,23.678
				c18.074,0,26.623-7.082,26.623-15.38c0-2.921-1.229-4.888-1.229-7.583c0-3.159,1.968-5.615,7.326-5.615
				c6.844,0,7.583,4.399,7.583,11.005v20.506c-46.407,1.216-80.112,11.47-80.112,39.797c0,22.224,20.274,33.942,46.17,33.942
				c12.685,0,25.656-5.138,33.793-12.256V1360.294z M1114.895,1331.645c-6.11,0-9.776-3.41-9.776-9.275
				c0-8.024,6.313-14.594,19.642-15.606v16.858C1124.003,1328.08,1119.943,1331.645,1114.895,1331.645z"/>
			<path fill="#231F20" d="M664.284,1227.872c-22.712,0-39.803,14.892-48.101,30.521v-27.839h-77.9v36.876h16.125v55.916h-0.107
				v36.876h61.781l0.102-63.987v-6.343c4.149-16.357,10.503-24.417,16.852-24.417c6.587,0,7.32,10.265,7.32,21.496l-0.221,73.251
				h61.65l0.113-89.621C701.899,1246.186,686.024,1227.872,664.284,1227.872z"/>
			<path fill="#231F20" d="M1313.622,1227.872c-14.659,0-29.55,12.937-35.415,28.328v-25.646h-75.2v36.876h16.118v55.916h-0.083
				v36.876h61.817v-58.36h0.036v-12.697c4.154-16.369,8.548-23.689,14.902-23.689c8.549,0,9.275,19.052,27.839,19.052
				c13.919,0,25.15-9.049,25.15-27.1C1348.787,1240.582,1335.362,1227.872,1313.622,1227.872z"/>
			<path fill="#231F20" d="M1033.161,1267.431v-36.876h-43.958v-33.931h-29.055c-7.761,18.122-22.426,30.7-44.613,33.383v37.424
				h14.581v49.084c0,30.271,19.29,47.117,47.129,47.117c27.595,0,47.129-16.846,47.129-47.117v-7.32h-23.695v16.357
				c0,3.66-2.426,6.594-5.854,6.594c-3.166,0-5.622-2.934-5.622-6.594v-58.121H1033.161z"/>
			<path fill="#231F20" d="M828.031,1364.86c-18.557,0-38.825-7.32-47.868-19.541v14.903h-55.671v-66.658h54.706
				c0,18.313,12.93,27.1,29.788,27.1c9.275,0,15.38-5.854,15.38-13.913c0-21.985-99.874-4.9-99.874-76.196
				c0-31.987,33.937-59.087,75.946-59.087c18.563,0,33.942,7.81,42.24,19.529l0.251-14.903h50.551v64.226h-49.824
				c0-18.313-12.208-27.1-29.055-27.1c-9.275,0-15.386,5.854-15.386,13.913c0,21.974,99.874,7.345,99.874,78.641
				C899.089,1337.761,870.034,1364.86,828.031,1364.86z"/>
		</g>
	</g>
</g>
</svg>
