<?xml version="1.0" encoding="utf-8"?>
<!-- Generator: Adobe Illustrator 16.0.0, SVG Export Plug-In . SVG Version: 6.00 Build 0)  -->
<!DOCTYPE svg PUBLIC "-//W3C//DTD SVG 1.1//EN" "http://www.w3.org/Graphics/SVG/1.1/DTD/svg11.dtd">
<svg version="1.1" id="Layer_1" xmlns="http://www.w3.org/2000/svg" xmlns:xlink="http://www.w3.org/1999/xlink" x="0px" y="0px"
	 width="1500px" height="1500px" viewBox="0 0 1500 1500" enable-background="new 0 0 1500 1500" xml:space="preserve">
<g>
	<path fill="#231F20" d="M1483.853,749.645c0,403.461-327.05,730.513-730.494,730.513c-403.468,0-730.52-327.052-730.52-730.513
		c0-403.449,327.052-730.513,730.52-730.513C1156.803,19.132,1483.853,346.196,1483.853,749.645z"/>
	<g>
		<g>
			<path fill="#FFDD15" d="M821.213,1153.783c-77.557,0-162.271-30.615-200.034-81.646v62.256H388.497V855.773h228.605
				c0,76.539,54.087,113.285,124.499,113.285c38.783,0,64.288-24.493,64.288-58.171c0-91.848-417.391-20.409-417.391-318.414
				c0-133.688,141.857-246.968,317.385-246.968c77.57,0,141.869,32.655,176.564,81.642l1.022-62.249h211.258v268.399h-208.19
				c0-76.534-51.055-113.279-121.442-113.279c-38.807,0-64.299,24.493-64.299,58.171c0,91.854,417.402,30.622,417.402,328.615
				C1118.195,1040.486,996.741,1153.783,821.213,1153.783z"/>
		</g>
	</g>
</g>
</svg>
